<svg width="80" height="80" viewBox="0 0 80 80" fill="none" xmlns="http://www.w3.org/2000/svg">
<path d="M79.9566 24.5601L79.9999 39.4158V63.1763V64.7941C79.9999 67.0732 78.1143 69.0159 75.8325 68.9545H69.7067L61.8274 69V53.5262V38.0525" fill="#34A853"/>
<path d="M61.8274 38.0525V26.2597V14.4669L64.9245 12.172C69.4107 8.83186 71.3919 8.35469 74.9672 9.6953C76.7662 10.3542 78.6335 12.2402 79.3623 14.0807C79.8633 15.3077 79.9088 15.8757 79.9999 19.9202L79.9566 24.5601" fill="#FBBC04"/>
<path d="M0.0432679 24.5597L0 19.9199C0.0910902 15.8753 0.136635 15.3073 0.637632 14.0803C1.36635 12.2398 3.2337 10.3538 5.03274 9.69491C8.60803 8.3543 10.5892 8.83147 15.0754 12.1716L18.1725 14.4666V26.2593V38.0521" fill="#C4221F"/>
<path d="M18.1725 38.0525V53.5262V69L10.2932 68.9546H4.16738C1.88557 69.0182 0 67.0754 0 64.7964V63.1786V39.4181L0.0432679 24.5624" fill="#4285F4"/>
<path d="M61.8273 14.4669L54.0847 20.3747L40.0796 30.8269L26.2338 20.4883L18.1724 14.4669V26.2597V38.0525L29.126 46.1643L39.8564 53.8171C39.9748 53.9012 40.1342 53.9012 40.2526 53.8148L51.2609 45.8689L61.8273 38.0525V26.2597V14.4669Z" fill="#E03A2F"/>
</svg>
